<?xml version="1.0" encoding="UTF-8"?><svg id="Layer_1" xmlns="http://www.w3.org/2000/svg" viewBox="0 0 90.97 52.09"><defs><style>.cls-1{fill:none;stroke:#1d1d1b;stroke-linecap:round;stroke-miterlimit:10;stroke-width:2.3px;}.cls-2{fill:#fff;}.cls-3{fill:#a5fffa;}.cls-4{fill:#1d1d1b;}</style></defs><path class="cls-3" d="M64.73,25.23l-2.26,1.78-.03-.04c-5.12-6.6-3.95-16.1,2.63-21.26,6.57-5.16,16.06-4.04,21.26,2.47l.05,.06-21.6,16.96-.04,.03Z"/><path class="cls-2" d="M64.37,24.79L85.97,7.83l.02,.02c5.18,6.6,4.03,16.15-2.57,21.33s-16.15,4.03-21.33-2.57l-.02-.03,2.27-1.77,.04-.03Z"/><path class="cls-4" d="M33.23,1.77c.2,0,.41,.04,.62,.13,.21,.09,.39,.23,.53,.43l11.79,17.85-1.15-.04L56.86,2.33c.31-.43,.7-.62,1.15-.56,.34,0,.63,.12,.88,.37,.24,.24,.36,.55,.36,.93V30.66c0,.35-.13,.65-.39,.91-.26,.26-.57,.39-.94,.39-.4,0-.73-.13-.98-.39-.26-.26-.39-.56-.39-.91V5.69l.77,.09-10.81,16.51c-.09,.17-.21,.31-.39,.41-.17,.1-.37,.14-.6,.11-.2,.03-.39,0-.58-.11-.19-.1-.34-.24-.45-.41L33.66,5.61l.81-.56V30.66c0,.35-.12,.65-.36,.91-.24,.26-.55,.39-.92,.39s-.67-.13-.9-.39c-.23-.26-.34-.56-.34-.91V3.06c0-.35,.12-.65,.36-.91,.24-.26,.55-.39,.92-.39Z"/><g><path class="cls-3" d="M15.97,30.95C7.72,30.95,1,24.23,1,15.97S7.72,1,15.97,1s14.97,6.72,14.97,14.97-6.72,14.97-14.97,14.97Z"/><path class="cls-4" d="M15.97,2c7.71,0,13.97,6.27,13.97,13.97s-6.27,13.97-13.97,13.97S2,23.68,2,15.97,8.27,2,15.97,2m0-2C7.15,0,0,7.15,0,15.97s7.15,15.97,15.97,15.97,15.97-7.15,15.97-15.97S24.8,0,15.97,0h0Z"/></g><path class="cls-4" d="M74,4.34c7.11,0,12.89,5.78,12.89,12.89s-5.78,12.89-12.89,12.89-12.89-5.78-12.89-12.89,5.78-12.89,12.89-12.89m0-2.3c-8.39,0-15.19,6.8-15.19,15.19s6.8,15.19,15.19,15.19,15.19-6.8,15.19-15.19-6.8-15.19-15.19-15.19h0Z"/><g><path class="cls-2" d="M12.38,5.5h7.18c3.8,0,6.88,3.08,6.88,6.88v7.18c0,3.8-3.08,6.88-6.88,6.88h-7.18c-3.8,0-6.88-3.08-6.88-6.88v-7.18c0-3.8,3.08-6.88,6.88-6.88Z"/><path class="cls-4" d="M19.56,6.5c3.24,0,5.88,2.64,5.88,5.88v7.18c0,3.24-2.64,5.88-5.88,5.88h-7.18c-3.24,0-5.88-2.64-5.88-5.88v-7.18c0-3.24,2.64-5.88,5.88-5.88h7.18m0-2h-7.18c-4.34,0-7.88,3.55-7.88,7.88v7.18c0,4.34,3.55,7.88,7.88,7.88h7.18c4.34,0,7.88-3.55,7.88-7.88v-7.18c0-4.34-3.55-7.88-7.88-7.88h0Z"/></g><line class="cls-1" x1="57.97" y1="30.78" x2="89.82" y2="5.77"/></svg>