<?xml version="1.0" encoding="UTF-8"?><svg id="Layer_1" xmlns="http://www.w3.org/2000/svg" viewBox="0 0 91.32 52.09"><defs><style>.cls-1{fill:#fff;}.cls-2{stroke-width:2px;}.cls-2,.cls-3{stroke:#1d1d1b;stroke-miterlimit:10;}.cls-2,.cls-4{fill:#1d1d1b;}.cls-3{fill:none;stroke-linecap:round;stroke-width:3px;}.cls-5{fill:#a5fffa;}</style></defs><path class="cls-5" d="M64.73,25.23l-2.26,1.78-.03-.04c-5.12-6.6-3.95-16.1,2.63-21.26,6.57-5.16,16.06-4.04,21.26,2.47l.05,.06-21.6,16.96-.04,.03Z"/><path class="cls-1" d="M64.37,24.79L85.97,7.83l.02,.02c5.18,6.6,4.03,16.15-2.57,21.33s-16.15,4.03-21.33-2.57l-.02-.03,2.27-1.77,.04-.03Z"/><path class="cls-2" d="M33.23,1.77c.2,0,.41,.04,.62,.13,.21,.09,.39,.23,.53,.43l11.79,17.85-1.15-.04L56.86,2.33c.31-.43,.7-.62,1.15-.56,.34,0,.63,.12,.88,.37,.24,.24,.36,.55,.36,.93V30.66c0,.35-.13,.65-.39,.91-.26,.26-.57,.39-.94,.39-.4,0-.73-.13-.98-.39-.26-.26-.39-.56-.39-.91V5.69l.77,.09-10.81,16.51c-.09,.17-.21,.31-.39,.41-.17,.1-.37,.14-.6,.11-.2,.03-.39,0-.58-.11-.19-.1-.34-.24-.45-.41L33.66,5.61l.81-.56V30.66c0,.35-.12,.65-.36,.91-.24,.26-.55,.39-.92,.39s-.67-.13-.9-.39c-.23-.26-.34-.56-.34-.91V3.06c0-.35,.12-.65,.36-.91,.24-.26,.55-.39,.92-.39Z"/><g><path class="cls-5" d="M15.97,30.45c-7.98,0-14.47-6.49-14.47-14.47S7.99,1.5,15.97,1.5s14.47,6.49,14.47,14.47-6.49,14.47-14.47,14.47Z"/><path class="cls-4" d="M15.97,3c7.15,0,12.97,5.82,12.97,12.97s-5.82,12.97-12.97,12.97S3,23.13,3,15.97,8.82,3,15.97,3m0-3C7.15,0,0,7.15,0,15.97s7.15,15.97,15.97,15.97,15.97-7.15,15.97-15.97S24.8,0,15.97,0h0Z"/></g><path class="cls-4" d="M74,5.04c6.72,0,12.19,5.47,12.19,12.19s-5.47,12.19-12.19,12.19-12.19-5.47-12.19-12.19,5.47-12.19,12.19-12.19m0-3c-8.39,0-15.19,6.8-15.19,15.19s6.8,15.19,15.19,15.19,15.19-6.8,15.19-15.19-6.8-15.19-15.19-15.19h0Z"/><g><path class="cls-1" d="M12.38,6h7.18c3.52,0,6.38,2.86,6.38,6.38v7.18c0,3.52-2.86,6.38-6.38,6.38h-7.18c-3.52,0-6.38-2.86-6.38-6.38v-7.18c0-3.52,2.86-6.38,6.38-6.38Z"/><path class="cls-4" d="M19.56,7.5c2.69,0,4.88,2.19,4.88,4.88v7.18c0,2.69-2.19,4.88-4.88,4.88h-7.18c-2.69,0-4.88-2.19-4.88-4.88v-7.18c0-2.69,2.19-4.88,4.88-4.88h7.18m0-3h-7.18c-4.34,0-7.88,3.55-7.88,7.88v7.18c0,4.34,3.55,7.88,7.88,7.88h7.18c4.34,0,7.88-3.55,7.88-7.88v-7.18c0-4.34-3.55-7.88-7.88-7.88h0Z"/></g><line class="cls-3" x1="57.97" y1="30.78" x2="89.82" y2="5.77"/></svg>